<?xml version="1.0" encoding="utf-8"?>
<!-- Generator: Adobe Illustrator 28.2.0, SVG Export Plug-In . SVG Version: 6.00 Build 0)  -->
<svg version="1.1" xmlns="http://www.w3.org/2000/svg" xmlns:xlink="http://www.w3.org/1999/xlink" x="0px" y="0px"
	 viewBox="0 0 301.8 361.2" style="enable-background:new 0 0 301.8 361.2;" xml:space="preserve">
<style type="text/css">
	.st0{fill:#C7C7C7;}
	.st1{opacity:0.5;fill:#85D4DE;}
	.st2{opacity:0.5;fill:#6DADB5;}
	.st3{opacity:0.5;fill:#BA963A;}
	.st4{opacity:0.5;fill:#E3B94D;}
	.st5{fill:#DFEBED;}
	.st6{fill:none;stroke:#180D52;stroke-width:2;stroke-miterlimit:10;}
	.st7{fill:none;}
	.st8{fill:#180D52;}
	.st9{font-family:'Avenir-Light';}
	.st10{font-size:36px;}
	.st11{font-size:12px;}
	.st12{fill:#108290;}
	.st13{font-family:'Avenir-Heavy';}
	.st14{font-size:18px;}
	.st15{fill:#474747;}
	.st16{fill:#A3A3A3;}
	.st17{fill:#108290;stroke:#BA963A;stroke-width:2;stroke-miterlimit:10;}
	.st18{opacity:0.75;}
	.st19{opacity:0.25;}
	.st20{opacity:0.75;fill:#474747;}
	.st21{opacity:0.5;}
	.st22{fill:none;stroke:#180D52;stroke-width:2;stroke-miterlimit:10;stroke-dasharray:5.9761,5.9761;}
	.st23{fill:#AA4E44;}
	.st24{fill:#AA4E44;stroke:#BA963A;stroke-width:2;stroke-miterlimit:10;}
	.st25{opacity:0.15;}
	.st26{font-size:16px;}
	.st27{fill:#180D52;stroke:#180D52;stroke-width:0.3474;stroke-miterlimit:10;}
	.st28{font-size:10px;}
	.st29{fill:none;stroke:#E05445;stroke-width:1.9242;stroke-miterlimit:10;}
	.st30{fill:none;stroke:#E05445;stroke-width:1.9651;stroke-miterlimit:10;}
	.st31{fill:#E05445;}
	.st32{font-family:'AvenirNext-DemiBold';}
	.st33{fill:#BA963A;}
	.st34{fill:none;stroke:#180D52;stroke-linecap:round;stroke-linejoin:round;stroke-miterlimit:10;}
</style>
<g id="Layer_1">
	<rect x="38.6" y="35.1" class="st0" width="32.8" height="276.3"/>
	<g>
		<polygon class="st1" points="38.8,51.8 71.5,35.1 71.5,61.1 		"/>
		<polygon class="st2" points="38.8,64.5 71.5,81.2 71.5,55.2 		"/>
		<polygon class="st1" points="38.8,97.8 71.5,81.2 71.5,107.1 		"/>
		<polygon class="st3" points="38.6,110.6 71.5,127.2 71.5,101.3 		"/>
		<polygon class="st1" points="38.8,143.9 71.5,127.2 71.5,153.2 		"/>
		<polygon class="st2" points="38.8,156.6 71.5,173.3 71.5,147.3 		"/>
		<polygon class="st4" points="38.8,189.8 71.6,173.3 71.6,199.2 		"/>
		<polygon class="st2" points="38.8,202.7 71.5,219.3 71.5,193.4 		"/>
		<polygon class="st1" points="38.8,235.9 71.5,219.3 71.5,245.2 		"/>
		<polygon class="st2" points="38.8,248.7 71.5,265.4 71.5,239.4 		"/>
		<polygon class="st4" points="39.1,281.5 71.5,265.4 71.5,291.3 		"/>
		<polygon class="st2" points="38.7,294.8 71.5,311.4 71.5,285.5 		"/>
	</g>
	<rect x="71.5" y="35.1" class="st5" width="190.4" height="276.3"/>
	<g>
		<circle class="st6" cx="61.5" cy="45" r="9"/>
		<rect x="55.6" y="26.4" class="st7" width="15.4" height="27.8"/>
		<text transform="matrix(1 0 0 1 55.6395 53.593)" class="st8 st9 st10">-</text>
	</g>
	<g>
		<circle class="st6" cx="61.8" cy="79.7" r="9"/>
		<rect x="56" y="61.1" class="st7" width="15.4" height="27.8"/>
		<text transform="matrix(1 0 0 1 55.9734 88.2796)" class="st8 st9 st10">-</text>
	</g>
	<g>
		<circle class="st6" cx="61.6" cy="117.9" r="9"/>
		<rect x="55.7" y="99.3" class="st7" width="15.4" height="27.8"/>
		<text transform="matrix(1 0 0 1 55.7222 126.4699)" class="st8 st9 st10">-</text>
	</g>
	<g>
		<circle class="st6" cx="61.9" cy="153.6" r="9"/>
		<rect x="56.1" y="134.9" class="st7" width="15.4" height="27.8"/>
		<text transform="matrix(1 0 0 1 56.0561 162.1564)" class="st8 st9 st10">-</text>
	</g>
	<g>
		<circle class="st6" cx="61.2" cy="190.3" r="9"/>
		<rect x="55.3" y="171.6" class="st7" width="15.4" height="27.8"/>
		<text transform="matrix(1 0 0 1 55.347 198.843)" class="st8 st9 st10">-</text>
	</g>
	<g>
		<circle class="st6" cx="61.5" cy="226" r="9"/>
		<rect x="55.7" y="207.3" class="st7" width="15.4" height="27.8"/>
		<text transform="matrix(1 0 0 1 55.6809 234.5295)" class="st8 st9 st10">-</text>
	</g>
	<g>
		<circle class="st6" cx="61.3" cy="264.2" r="9"/>
		<rect x="55.4" y="245.5" class="st7" width="15.4" height="27.8"/>
		<text transform="matrix(1 0 0 1 55.4297 272.7198)" class="st8 st9 st10">-</text>
	</g>
	<g>
		<circle class="st6" cx="61.6" cy="300.8" r="9"/>
		<rect x="55.8" y="282.2" class="st7" width="15.4" height="27.8"/>
		<text transform="matrix(1 0 0 1 55.7636 309.4063)" class="st8 st9 st10">-</text>
	</g>
	<rect x="19.2" y="35.3" class="st7" width="36.1" height="276.1"/>
	<text transform="matrix(6.123234e-17 -1 1 6.123234e-17 28.248 273.6919)" class="st8 st9 st11">negatively-charged muscovite surface</text>
	<g>
		<circle class="st12" cx="84.4" cy="153.1" r="11.1"/>
		<rect x="78.2" y="145.7" class="st7" width="12.3" height="14.9"/>
		<text transform="matrix(1 0 0 1 78.2224 159.259)" class="st8 st13 st14">+</text>
	</g>
	<g>
		<circle class="st12" cx="84.4" cy="300.3" r="11.1"/>
		<rect x="78.2" y="292.9" class="st7" width="12.3" height="14.9"/>
		<text transform="matrix(1 0 0 1 78.2224 306.4661)" class="st8 st13 st14">+</text>
	</g>
	<g>
		<circle class="st15" cx="91.6" cy="265.4" r="10.9"/>
		<circle class="st16" cx="81.2" cy="254.6" r="6"/>
		<circle class="st16" cx="81.2" cy="276" r="6"/>
	</g>
	<g>
		<circle class="st12" cx="84.4" cy="225.4" r="11.1"/>
		<rect x="78.2" y="217.9" class="st7" width="12.3" height="14.9"/>
		<text transform="matrix(1 0 0 1 78.2224 231.5453)" class="st8 st13 st14">+</text>
	</g>
	<g>
		<circle class="st12" cx="84.4" cy="117.9" r="11.1"/>
		<rect x="78.2" y="110.5" class="st7" width="12.3" height="14.9"/>
		<text transform="matrix(1 0 0 1 78.2224 124.0723)" class="st8 st13 st14">+</text>
	</g>
	<g>
		<circle class="st15" cx="91.6" cy="80.4" r="10.9"/>
		<circle class="st16" cx="81.2" cy="69.6" r="6"/>
		<circle class="st16" cx="81.2" cy="91" r="6"/>
	</g>
	<g>
		<circle class="st12" cx="84.4" cy="46.1" r="11.1"/>
		<rect x="78.2" y="38.7" class="st7" width="12.3" height="14.9"/>
		<text transform="matrix(1 0 0 1 78.2224 52.2908)" class="st8 st13 st14">+</text>
	</g>
	<g>
		<circle class="st15" cx="91.4" cy="190.4" r="10.9"/>
		<circle class="st16" cx="81" cy="179.6" r="6"/>
		<circle class="st16" cx="81" cy="201" r="6"/>
	</g>
	<line class="st6" x1="38.6" y1="311.8" x2="262" y2="311.8"/>
	<g>
		<circle class="st17" cx="122.2" cy="270.7" r="11.1"/>
		<rect x="116.1" y="263.3" class="st7" width="12.3" height="14.9"/>
		<text transform="matrix(1 0 0 1 116.0638 276.8961)" class="st8 st13 st14">+</text>
	</g>
	<g class="st18">
		<circle class="st12" cx="124" cy="190.4" r="11.1"/>
		<rect x="117.8" y="183" class="st7" width="12.3" height="14.9"/>
		<text transform="matrix(1 0 0 1 117.8286 196.6022)" class="st8 st13 st14">+</text>
	</g>
	<g class="st18">
		<circle class="st12" cx="122" cy="79.7" r="11.1"/>
		<rect x="115.8" y="72.3" class="st7" width="12.3" height="14.9"/>
		<text transform="matrix(1 0 0 1 115.8286 85.8821)" class="st8 st13 st14">+</text>
	</g>
	<g class="st19">
		<circle class="st15" cx="115.9" cy="156" r="10.9"/>
		<circle class="st16" cx="130.8" cy="154.1" r="6"/>
		<circle class="st16" cx="113.5" cy="141.4" r="6"/>
	</g>
	<circle class="st20" cx="135.8" cy="51.5" r="10.9"/>
	<circle class="st16" cx="149.8" cy="46.1" r="6"/>
	<path class="st16" d="M135.6,40.2c-1.3,3.1-4.8,4.5-7.9,3.3c-3.1-1.3-4.5-4.8-3.3-7.9c0.1-0.2,0.1-0.3,0.2-0.5h10.7
		C136.1,36.6,136.3,38.5,135.6,40.2z"/>
	<g class="st21">
		<g>
			<line class="st6" x1="162.8" y1="12.6" x2="162.8" y2="15.6"/>
			<line class="st22" x1="162.8" y1="21.5" x2="162.8" y2="305.4"/>
			<line class="st6" x1="162.8" y1="308.4" x2="162.8" y2="311.4"/>
		</g>
	</g>
	<g class="st18">
		<circle class="st23" cx="124.2" cy="221.9" r="9"/>
		<rect x="118.4" y="203.2" class="st7" width="15.4" height="27.8"/>
		<text transform="matrix(1 0 0 1 118.3624 230.4128)" class="st8 st9 st10">-</text>
	</g>
	<g>
		<circle class="st24" cx="135" cy="130.4" r="9"/>
		<rect x="129.2" y="111.7" class="st7" width="15.4" height="27.8"/>
		<text transform="matrix(1 0 0 1 129.1541 138.9571)" class="st8 st9 st10">-</text>
	</g>
	<g class="st18">
		<path class="st23" d="M142.9,305.6c0,2.2-0.8,4.2-2.1,5.8H127c-1.3-1.6-2.1-3.6-2.1-5.8c0-5,4-9,9-9
			C138.8,296.6,142.9,300.6,142.9,305.6z"/>
		<rect x="128" y="287" class="st7" width="15.4" height="27.8"/>
		<text transform="matrix(1 0 0 1 127.9892 314.1685)" class="st8 st9 st10">-</text>
	</g>
	<g class="st18">
		<circle class="st15" cx="151.1" cy="97.3" r="10.9"/>
		<circle class="st16" cx="154.3" cy="112" r="6"/>
		<circle class="st16" cx="165.5" cy="93.7" r="6"/>
	</g>
	<g class="st21">
		<circle class="st15" cx="176.7" cy="291.3" r="10.9"/>
		<circle class="st16" cx="162" cy="294.4" r="6"/>
		<path class="st16" d="M182.2,311.4c1.2-0.4,2.4-1.3,3.1-2.5c1.8-2.8,0.9-6.5-1.9-8.3c-0.2-0.1-0.4-0.2-0.5-0.3
			c-2.6-1.3-5.7-0.5-7.5,1.8c-0.1,0.1-0.2,0.3-0.3,0.4c-1.8,2.8-0.9,6.5,1.9,8.3c0.4,0.2,0.8,0.4,1.2,0.6H182.2z"/>
	</g>
	<g class="st18">
		<circle class="st15" cx="155" cy="208.7" r="10.9"/>
		<circle class="st16" cx="159.3" cy="223.1" r="6"/>
		<circle class="st16" cx="169" cy="204" r="6"/>
	</g>
	<g class="st25">
		<circle class="st23" cx="229" cy="58.9" r="9"/>
		<rect x="223.2" y="40.3" class="st7" width="15.4" height="27.8"/>
		<text transform="matrix(1 0 0 1 223.1748 67.4896)" class="st8 st9 st10">-</text>
	</g>
	<g class="st21">
		<circle class="st12" cx="202.8" cy="254.3" r="11.1"/>
		<rect x="196.6" y="246.9" class="st7" width="12.3" height="14.9"/>
		<text transform="matrix(1 0 0 1 196.633 260.502)" class="st8 st13 st14">+</text>
	</g>
	<g class="st25">
		<circle class="st15" cx="231.1" cy="227.8" r="10.9"/>
		<circle class="st16" cx="245.7" cy="224.1" r="6"/>
		<circle class="st16" cx="227.1" cy="213.6" r="6"/>
	</g>
	<g class="st25">
		<circle class="st15" cx="228.2" cy="279.1" r="10.9"/>
		<circle class="st16" cx="235.1" cy="292.5" r="6"/>
		<circle class="st16" cx="241.2" cy="271.9" r="6"/>
	</g>
	<g class="st21">
		<circle class="st15" cx="182.8" cy="146.6" r="10.9"/>
		<circle class="st16" cx="186" cy="161.3" r="6"/>
		<circle class="st16" cx="197.2" cy="143" r="6"/>
	</g>
	<g class="st25">
		<circle class="st15" cx="237" cy="137.9" r="10.9"/>
		<circle class="st16" cx="249.4" cy="146.4" r="6"/>
		<circle class="st16" cx="245" cy="125.4" r="6"/>
	</g>
	<g class="st21">
		<path class="st15" d="M202.9,44.9c-0.1,1.5-0.4,3.1-1.2,4.5c-0.8,1.6-1.9,2.9-3.2,3.8c-2,1.5-4.5,2.2-7,2.1
			c-1.5-0.1-3-0.4-4.4-1.2c-5.4-2.7-7.5-9.3-4.8-14.6c1-2,2.5-3.5,4.3-4.5h10.9c1.2,0.7,2.2,1.5,3,2.5
			C202.1,39.7,203,42.3,202.9,44.9z"/>
		<circle class="st16" cx="196.4" cy="59" r="6"/>
		<path class="st16" d="M202.3,35.1c-0.6,0.5-1.2,1.2-1.6,2c-0.1,0.2-0.2,0.4-0.2,0.6c-1,2.7,0,5.8,2.4,7.3c0.1,0.1,0.3,0.2,0.4,0.3
			c3,1.5,6.6,0.3,8.1-2.7c1.3-2.6,0.6-5.7-1.6-7.4H202.3z"/>
	</g>
	<g class="st21">
		<circle class="st15" cx="216.6" cy="95.6" r="10.9"/>
		<circle class="st16" cx="231" cy="91.2" r="6"/>
		<circle class="st16" cx="211.9" cy="81.5" r="6"/>
	</g>
	<g class="st25">
		<path class="st15" d="M262,55v14.5c-1.2-1.4-2.1-3.1-2.5-4.9c-0.3-1.5-0.4-3.1,0-4.7c0.4-1.7,1.1-3.3,2.2-4.5
			C261.7,55.3,261.8,55.1,262,55z"/>
		<path class="st16" d="M262,43.4v12c-0.1,0-0.2,0-0.4,0c-0.2,0-0.4-0.1-0.7-0.1c-3.2-0.7-5.3-3.9-4.6-7.2
			C256.9,45.4,259.3,43.5,262,43.4z"/>
		<path class="st16" d="M262,66.1v8.5c-1.4,1.4-3.5,2.1-5.5,1.6c-3.2-0.7-5.3-3.9-4.6-7.2s3.9-5.3,7.2-4.6c0.2,0,0.3,0.1,0.5,0.1
			C260.4,64.9,261.3,65.4,262,66.1z"/>
	</g>
	<g class="st21">
		<circle class="st15" cx="215.6" cy="178.2" r="10.9"/>
		<circle class="st16" cx="228.6" cy="185.9" r="6"/>
		<circle class="st16" cx="222.7" cy="165.2" r="6"/>
	</g>
	<g class="st25">
		<path class="st15" d="M262,243.3v20.2c-5.2-2.1-8-7.8-6.4-13.2C256.6,246.9,259,244.5,262,243.3z"/>
	</g>
	<g class="st21">
		<circle class="st23" cx="187.6" cy="224.1" r="9"/>
		<rect x="181.7" y="205.4" class="st7" width="15.4" height="27.8"/>
		<text transform="matrix(1 0 0 1 181.686 232.6277)" class="st8 st9 st10">-</text>
	</g>
	<rect x="75" y="12.6" class="st7" width="81.7" height="36.1"/>
	<text transform="matrix(1 0 0 1 76.1091 24.6641)" class="st8 st9 st26">Stern Layer</text>
	<rect x="165.5" y="12.6" class="st7" width="97" height="36.1"/>
	<text transform="matrix(1 0 0 1 168.0533 24.6641)" class="st8 st9 st26">Diffuse Layer</text>
	<rect x="43.6" y="336" class="st7" width="276.1" height="36.1"/>
	<text transform="matrix(1 0 0 1 99.8917 348.1467)" class="st8 st9 st26">electron density profile</text>
	<line class="st6" x1="71" y1="312.2" x2="71" y2="35.1"/>
	<rect x="265.9" y="35.3" class="st7" width="36.1" height="276.1"/>
	<text transform="matrix(-3.071796e-07 -1 1 -3.071796e-07 274.9709 213.8174)" class="st8 st9 st11">aqueous phase</text>
	<line class="st6" x1="39.7" y1="341.6" x2="39.6" y2="310.9"/>
	<polygon class="st27" points="37,341.6 42.3,341.5 39.7,346.1 	"/>
	<rect x="28.2" y="347.9" class="st7" width="23" height="15.2"/>
	<text transform="matrix(1 0 0 1 34.9841 355.4476)" class="st8 st9 st28">W</text>
	<text transform="matrix(0.583 0 0 0.583 43.4692 356.5878)" class="st8 st9 st28">eq</text>
</g>
<g id="Layer_2">
	<ellipse class="st29" cx="73.6" cy="225.4" rx="27" ry="17.5"/>
	<ellipse class="st30" cx="92.5" cy="80.2" rx="44.5" ry="20"/>
	<text transform="matrix(1 0 0 1 95.8765 250.3228)" class="st31 st32 st26">ISSC</text>
	<text transform="matrix(1 0 0 1 96.285 114.8721)" class="st31 st32 st26">OSSC</text>
	<text transform="matrix(1 0 0 1 117.7974 152.4141)" class="st33 st32 st11">co-ion</text>
	<text transform="matrix(1 0 0 1 96.0452 292.8575)" class="st33 st32 st11">counterion</text>
	<path class="st34" d="M261.7,326.4c-1.1,0-83.6-0.3-92.3-0.3c-8.3,0-9.1-2.5-17.8-2.5c-11.8,0.1-18.3,7.3-27.5,7.5
		c-11.2,0.2-13-6.7-21.1-8.7c-12.1-2.9-13.1,16.2-18.6,16.2c-5.1,0-9.2-24.9-12.8-20.4c-5.2,6.5-5.3,28.2-8.5,28.3
		c-5.4,0-0.2-25.2-24-35.1"/>
</g>
</svg>
